<?xml version="1.0" encoding="utf-8"?>
<!-- Generator: Adobe Illustrator 27.1.1, SVG Export Plug-In . SVG Version: 6.00 Build 0)  -->
<svg version="1.1" id="a" xmlns="http://www.w3.org/2000/svg" xmlns:xlink="http://www.w3.org/1999/xlink" x="0px" y="0px"
	 viewBox="0 0 316.2 511.9" style="enable-background:new 0 0 316.2 511.9;" xml:space="preserve">
<style type="text/css">
	.st0{fill:#F6A11B;}
	.st1{fill:#5C5C5B;}
</style>
<circle class="st0" cx="159.5" cy="205.7" r="156.7"/>
<circle class="st0" cx="282.3" cy="452.4" r="10.9"/>
<circle class="st0" cx="271.4" cy="496.9" r="15"/>
<g>
	<path class="st1" d="M303.6,206.7c-0.1-0.3-0.1-0.6-0.2-0.9c-0.1-0.3-0.1-0.6-0.2-0.9c-0.4-2.2-0.9-4.3-1.4-6.5
		c-0.5-2.3-1-4.6-1.6-6.9c-2.6-10.9-6-21.3-10.4-31.1c-0.1-0.2-0.2-0.3-0.2-0.5c-0.1-0.2-0.1-0.3-0.2-0.5s-0.1-0.3-0.2-0.5
		c-11.5-25.3-28.9-46.8-52.3-64.2c-2.7-2.2-7.1-5.1-9.9-7.1c-19.2-13.7-42.6-21.2-66-23.1c-43-3.3-90.2,12.5-114.4,50
		C26.8,145,27.2,185,42.2,216.9c18.7,40.7,58.2,71.6,102.6,78.2c1.9,0.3,4.4,0.7,6.4,0.8c3.7,0.5,9.1,0.5,12.8,0.6
		c3,0,6.6-0.3,9.6-0.5c2.2-0.2,7.2-1,9.5-1.2c2.1-0.5,7.4-1.4,9.4-2c2.9-0.9,6.3-1.7,9.2-2.7c2-0.8,7-2.5,8.9-3.3
		c1.9-0.9,6.7-3,8.6-3.9c12.6-6.4,24.8-13.8,36-22.5c7.8-5.9,14.9-12.5,21.3-19.7c1.9-2.1,2.6-4.9,2.1-7.7l0,0
		c-0.9-5.1-1.9-10-2.9-14.6c-0.7-3.4-5.1-4.4-7.2-1.6c-3.2,4.1-6.8,8-10.7,11.7c-11.5,11.1-25.2,20.3-39.4,27.6
		c-2.7,1.5-6.9,3.4-9.8,4.8l-4.8,2c-1.4,0.6-3.3,1.5-4.8,1.8c-2.9,1-6.9,2.3-9.8,2.9c-2.8,0.8-7.1,1.4-10,2l-5.1,0.5
		c-23.7,2.1-47.6-5.2-66.9-18.8c-26.9-19.1-47.2-50.9-46.2-84.6c2-71.7,99.4-90.4,149.7-54.8c1.4,0.9,5.3,3.6,6.7,4.5
		c1.5,1.2,4.8,3.6,6.4,4.8c27.2,20.1,42.2,46,51.3,75.8c0.1,0.2,0.1,0.5,0.2,0.7c0.1,0.2,0.1,0.5,0.2,0.7c0.5,1.7,1,3.5,1.5,5.2
		c0,0.1,0,0.1,0,0.2c2.5,9.1,4.5,18.5,6.2,28.2c0,0.1,0,0.1,0,0.2c0.3,1.6,0.5,3.3,0.8,5c0,0.2,0.1,0.4,0.1,0.7
		c0,0.2,0.1,0.4,0.1,0.7c0.2,1.1,0.4,2.1,0.5,3.2c9.1,59.4,7,120.7,0,180.3c-0.6,6.5,8.3,8,10.1,1.9c3.8-14.8,6.4-30.6,8.8-45.6
		C312.1,321.4,314.6,263.4,303.6,206.7L303.6,206.7z"/>
	<path class="st1" d="M89.9,26.8c9.9-4.7,20.7-8.4,31.4-10.9c24.9-5.9,51.6-5.8,75.9,2.9c51.8,17.8,90.2,73.2,92.9,127.4
		c0.1,1.9,0.5,3.9,1.2,5.7l2.6,6.4h0l0.2,0.4c2.5,5.7,4.8,11.6,6.7,17.6c1.1,3.6,6.3,3.1,6.9-0.6c1.1-7.3,1.5-14.8,1.2-22.3
		C306.4,79.4,247.5,7.1,171.9,0.6c-19.8-1.9-39.9,0.6-58.9,6.1c-5,1.5-10.6,3.4-15.4,5.3c-1,0.4-5.7,2.4-6.8,2.9
		c-10.7,4.9-21.1,11-30.5,18.2C10.3,70.8-11.5,136.4,6,196.5c1.5,4.7,8.4,2.7,7.1-2.1c-9.3-32.3-6.2-67.7,7.8-98.1
		C34.9,65.8,59.4,41,89.9,26.8z"/>
</g>
</svg>
